<mxfile host="07872aa2-2ceb-4248-b79e-d9d9742af68c" modified="2020-07-24T20:27:26.243Z" agent="5.0 (Windows NT 10.0; Win64; x64) AppleWebKit/537.36 (KHTML, like Gecko) Code/1.47.2 Chrome/78.0.3904.130 Electron/7.3.2 Safari/537.36" etag="6_NZCrRKzjBlUg_Vtvrz" version="13.1.3">
    <diagram id="1OY8vG89cqY9DOylxmi3" name="Page-1">
        <mxGraphModel dx="959" dy="581" grid="1" gridSize="10" guides="1" tooltips="1" connect="1" arrows="1" fold="1" page="1" pageScale="1" pageWidth="850" pageHeight="1100" math="0" shadow="0">
            <root>
                <mxCell id="0"/>
                <mxCell id="1" parent="0"/>
                <mxCell id="Qm3J36VMEmxJ5wWoOTs4-114" style="edgeStyle=orthogonalEdgeStyle;rounded=0;orthogonalLoop=1;jettySize=auto;html=1;exitX=0.25;exitY=0;exitDx=0;exitDy=0;fontSize=15;" parent="1" source="Qm3J36VMEmxJ5wWoOTs4-94" edge="1">
                    <mxGeometry relative="1" as="geometry">
                        <mxPoint x="415" y="130" as="targetPoint"/>
                        <Array as="points">
                            <mxPoint x="415" y="190"/>
                            <mxPoint x="415" y="190"/>
                        </Array>
                    </mxGeometry>
                </mxCell>
                <mxCell id="Qm3J36VMEmxJ5wWoOTs4-94" value="" style="rounded=0;whiteSpace=wrap;html=1;fillColor=none;dashed=1;" parent="1" vertex="1">
                    <mxGeometry x="290" y="230" width="500" height="230" as="geometry"/>
                </mxCell>
                <mxCell id="Qm3J36VMEmxJ5wWoOTs4-122" style="edgeStyle=orthogonalEdgeStyle;rounded=0;orthogonalLoop=1;jettySize=auto;html=1;exitX=0.25;exitY=0;exitDx=0;exitDy=0;entryX=0.5;entryY=1;entryDx=0;entryDy=0;fontSize=15;" parent="1" source="Qm3J36VMEmxJ5wWoOTs4-1" target="Qm3J36VMEmxJ5wWoOTs4-96" edge="1">
                    <mxGeometry relative="1" as="geometry"/>
                </mxCell>
                <mxCell id="Qm3J36VMEmxJ5wWoOTs4-123" style="edgeStyle=orthogonalEdgeStyle;rounded=0;orthogonalLoop=1;jettySize=auto;html=1;exitX=0.75;exitY=0;exitDx=0;exitDy=0;entryX=0.25;entryY=1;entryDx=0;entryDy=0;fontSize=15;" parent="1" source="Qm3J36VMEmxJ5wWoOTs4-1" target="Qm3J36VMEmxJ5wWoOTs4-97" edge="1">
                    <mxGeometry relative="1" as="geometry"/>
                </mxCell>
                <mxCell id="Qm3J36VMEmxJ5wWoOTs4-1" value="" style="rounded=1;whiteSpace=wrap;html=1;" parent="1" vertex="1">
                    <mxGeometry x="70" y="50" width="70" height="90" as="geometry"/>
                </mxCell>
                <mxCell id="Qm3J36VMEmxJ5wWoOTs4-8" style="edgeStyle=orthogonalEdgeStyle;rounded=0;orthogonalLoop=1;jettySize=auto;html=1;" parent="1" source="Qm3J36VMEmxJ5wWoOTs4-2" edge="1">
                    <mxGeometry relative="1" as="geometry">
                        <mxPoint x="230" y="90" as="targetPoint"/>
                    </mxGeometry>
                </mxCell>
                <mxCell id="Qm3J36VMEmxJ5wWoOTs4-2" value="App.js" style="text;html=1;strokeColor=none;fillColor=none;align=center;verticalAlign=middle;whiteSpace=wrap;rounded=0;fontStyle=1" parent="1" vertex="1">
                    <mxGeometry x="85" y="80" width="40" height="20" as="geometry"/>
                </mxCell>
                <mxCell id="Qm3J36VMEmxJ5wWoOTs4-102" style="edgeStyle=orthogonalEdgeStyle;rounded=0;orthogonalLoop=1;jettySize=auto;html=1;entryX=0.006;entryY=0.653;entryDx=0;entryDy=0;entryPerimeter=0;fontSize=15;" parent="1" source="Qm3J36VMEmxJ5wWoOTs4-5" target="Qm3J36VMEmxJ5wWoOTs4-24" edge="1">
                    <mxGeometry relative="1" as="geometry">
                        <Array as="points">
                            <mxPoint x="390" y="53"/>
                        </Array>
                    </mxGeometry>
                </mxCell>
                <mxCell id="Qm3J36VMEmxJ5wWoOTs4-104" style="edgeStyle=orthogonalEdgeStyle;rounded=0;orthogonalLoop=1;jettySize=auto;html=1;exitX=1;exitY=0.5;exitDx=0;exitDy=0;entryX=0.373;entryY=-0.014;entryDx=0;entryDy=0;entryPerimeter=0;fontSize=15;" parent="1" source="Qm3J36VMEmxJ5wWoOTs4-5" target="Qm3J36VMEmxJ5wWoOTs4-94" edge="1">
                    <mxGeometry relative="1" as="geometry"/>
                </mxCell>
                <mxCell id="Qm3J36VMEmxJ5wWoOTs4-5" value="" style="rounded=0;whiteSpace=wrap;html=1;" parent="1" vertex="1">
                    <mxGeometry x="330" y="60" width="120" height="60" as="geometry"/>
                </mxCell>
                <mxCell id="Qm3J36VMEmxJ5wWoOTs4-6" value="FetchNews ()" style="text;html=1;strokeColor=none;fillColor=none;align=center;verticalAlign=middle;whiteSpace=wrap;rounded=0;fontStyle=5" parent="1" vertex="1">
                    <mxGeometry x="390" y="20" width="80" height="20" as="geometry"/>
                </mxCell>
                <mxCell id="Qm3J36VMEmxJ5wWoOTs4-7" value="actions/thunks" style="text;html=1;strokeColor=none;fillColor=none;align=center;verticalAlign=middle;whiteSpace=wrap;rounded=0;fontStyle=1" parent="1" vertex="1">
                    <mxGeometry x="345" y="80" width="90" height="20" as="geometry"/>
                </mxCell>
                <mxCell id="Qm3J36VMEmxJ5wWoOTs4-103" style="edgeStyle=orthogonalEdgeStyle;rounded=0;orthogonalLoop=1;jettySize=auto;html=1;exitX=0;exitY=1;exitDx=0;exitDy=0;entryX=1;entryY=0.25;entryDx=0;entryDy=0;fontSize=15;" parent="1" source="Qm3J36VMEmxJ5wWoOTs4-24" target="Qm3J36VMEmxJ5wWoOTs4-5" edge="1">
                    <mxGeometry relative="1" as="geometry"/>
                </mxCell>
                <mxCell id="Qm3J36VMEmxJ5wWoOTs4-24" value="API" style="ellipse;whiteSpace=wrap;html=1;" parent="1" vertex="1">
                    <mxGeometry x="650" y="20" width="110" height="50" as="geometry"/>
                </mxCell>
                <mxCell id="Qm3J36VMEmxJ5wWoOTs4-26" value="front page search" style="text;html=1;strokeColor=none;fillColor=none;align=center;verticalAlign=middle;whiteSpace=wrap;rounded=0;" parent="1" vertex="1">
                    <mxGeometry x="550" y="20" width="100" height="20" as="geometry"/>
                </mxCell>
                <mxCell id="Qm3J36VMEmxJ5wWoOTs4-30" value="array of data" style="text;html=1;strokeColor=none;fillColor=none;align=center;verticalAlign=middle;whiteSpace=wrap;rounded=0;" parent="1" vertex="1">
                    <mxGeometry x="560" y="60" width="70" height="20" as="geometry"/>
                </mxCell>
                <mxCell id="Qm3J36VMEmxJ5wWoOTs4-85" style="edgeStyle=orthogonalEdgeStyle;rounded=0;orthogonalLoop=1;jettySize=auto;html=1;exitX=1;exitY=0.5;exitDx=0;exitDy=0;entryX=-0.057;entryY=-0.256;entryDx=0;entryDy=0;entryPerimeter=0;" parent="1" source="Qm3J36VMEmxJ5wWoOTs4-31" target="Qm3J36VMEmxJ5wWoOTs4-45" edge="1">
                    <mxGeometry relative="1" as="geometry"/>
                </mxCell>
                <mxCell id="Qm3J36VMEmxJ5wWoOTs4-95" style="edgeStyle=orthogonalEdgeStyle;rounded=0;orthogonalLoop=1;jettySize=auto;html=1;exitX=0;exitY=0.7;exitDx=0;exitDy=0;entryX=0.528;entryY=-0.217;entryDx=0;entryDy=0;entryPerimeter=0;" parent="1" source="Qm3J36VMEmxJ5wWoOTs4-31" target="Qm3J36VMEmxJ5wWoOTs4-68" edge="1">
                    <mxGeometry relative="1" as="geometry"/>
                </mxCell>
                <mxCell id="Qm3J36VMEmxJ5wWoOTs4-31" value="" style="shape=cylinder;whiteSpace=wrap;html=1;boundedLbl=1;backgroundOutline=1;fillColor=#d5e8d4;strokeColor=#82b366;" parent="1" vertex="1">
                    <mxGeometry x="410" y="250" width="60" height="80" as="geometry"/>
                </mxCell>
                <mxCell id="Qm3J36VMEmxJ5wWoOTs4-32" value="local Storage" style="text;html=1;strokeColor=none;fillColor=none;align=center;verticalAlign=middle;whiteSpace=wrap;rounded=0;fontStyle=1;fontSize=15;" parent="1" vertex="1">
                    <mxGeometry x="610" y="410" width="135" height="20" as="geometry"/>
                </mxCell>
                <mxCell id="Qm3J36VMEmxJ5wWoOTs4-121" style="edgeStyle=orthogonalEdgeStyle;rounded=0;orthogonalLoop=1;jettySize=auto;html=1;exitX=0;exitY=0.5;exitDx=0;exitDy=0;fontSize=15;" parent="1" source="Qm3J36VMEmxJ5wWoOTs4-33" edge="1">
                    <mxGeometry relative="1" as="geometry">
                        <mxPoint x="80" y="150" as="targetPoint"/>
                    </mxGeometry>
                </mxCell>
                <mxCell id="Qm3J36VMEmxJ5wWoOTs4-33" value="" style="shape=cylinder;whiteSpace=wrap;html=1;boundedLbl=1;backgroundOutline=1;fillColor=#dae8fc;strokeColor=#6c8ebf;" parent="1" vertex="1">
                    <mxGeometry x="170" y="175" width="67.5" height="90" as="geometry"/>
                </mxCell>
                <mxCell id="Qm3J36VMEmxJ5wWoOTs4-34" value="Redux App Store" style="text;html=1;strokeColor=none;fillColor=none;align=center;verticalAlign=middle;whiteSpace=wrap;rounded=0;fontStyle=1" parent="1" vertex="1">
                    <mxGeometry x="110" y="265" width="112.5" height="20" as="geometry"/>
                </mxCell>
                <mxCell id="Qm3J36VMEmxJ5wWoOTs4-40" value="" style="shape=table;html=1;whiteSpace=wrap;startSize=0;container=1;collapsible=0;childLayout=tableLayout;fillColor=#dae8fc;strokeColor=#6c8ebf;" parent="1" vertex="1">
                    <mxGeometry x="500" y="250" width="140" height="80" as="geometry"/>
                </mxCell>
                <mxCell id="Qm3J36VMEmxJ5wWoOTs4-41" value="" style="shape=partialRectangle;html=1;whiteSpace=wrap;collapsible=0;dropTarget=0;pointerEvents=0;fillColor=none;top=0;left=0;bottom=0;right=0;points=[[0,0.5],[1,0.5]];portConstraint=eastwest;" parent="Qm3J36VMEmxJ5wWoOTs4-40" vertex="1">
                    <mxGeometry width="140" height="27" as="geometry"/>
                </mxCell>
                <mxCell id="Qm3J36VMEmxJ5wWoOTs4-42" value="objectID" style="shape=partialRectangle;html=1;whiteSpace=wrap;connectable=0;fillColor=none;top=0;left=0;bottom=0;right=0;overflow=hidden;" parent="Qm3J36VMEmxJ5wWoOTs4-41" vertex="1">
                    <mxGeometry width="47" height="27" as="geometry"/>
                </mxCell>
                <mxCell id="Qm3J36VMEmxJ5wWoOTs4-43" value="" style="shape=partialRectangle;html=1;whiteSpace=wrap;connectable=0;fillColor=none;top=0;left=0;bottom=0;right=0;overflow=hidden;" parent="Qm3J36VMEmxJ5wWoOTs4-41" vertex="1">
                    <mxGeometry x="47" width="46" height="27" as="geometry"/>
                </mxCell>
                <mxCell id="Qm3J36VMEmxJ5wWoOTs4-44" value="upvotes" style="shape=partialRectangle;html=1;whiteSpace=wrap;connectable=0;fillColor=none;top=0;left=0;bottom=0;right=0;overflow=hidden;" parent="Qm3J36VMEmxJ5wWoOTs4-41" vertex="1">
                    <mxGeometry x="93" width="47" height="27" as="geometry"/>
                </mxCell>
                <mxCell id="Qm3J36VMEmxJ5wWoOTs4-45" value="" style="shape=partialRectangle;html=1;whiteSpace=wrap;collapsible=0;dropTarget=0;pointerEvents=0;fillColor=none;top=0;left=0;bottom=0;right=0;points=[[0,0.5],[1,0.5]];portConstraint=eastwest;" parent="Qm3J36VMEmxJ5wWoOTs4-40" vertex="1">
                    <mxGeometry y="27" width="140" height="26" as="geometry"/>
                </mxCell>
                <mxCell id="Qm3J36VMEmxJ5wWoOTs4-46" value="888" style="shape=partialRectangle;html=1;whiteSpace=wrap;connectable=0;fillColor=none;top=0;left=0;bottom=0;right=0;overflow=hidden;" parent="Qm3J36VMEmxJ5wWoOTs4-45" vertex="1">
                    <mxGeometry width="47" height="26" as="geometry"/>
                </mxCell>
                <mxCell id="Qm3J36VMEmxJ5wWoOTs4-47" value="" style="shape=partialRectangle;html=1;whiteSpace=wrap;connectable=0;fillColor=none;top=0;left=0;bottom=0;right=0;overflow=hidden;" parent="Qm3J36VMEmxJ5wWoOTs4-45" vertex="1">
                    <mxGeometry x="47" width="46" height="26" as="geometry"/>
                </mxCell>
                <mxCell id="Qm3J36VMEmxJ5wWoOTs4-48" value="6" style="shape=partialRectangle;html=1;whiteSpace=wrap;connectable=0;fillColor=none;top=0;left=0;bottom=0;right=0;overflow=hidden;" parent="Qm3J36VMEmxJ5wWoOTs4-45" vertex="1">
                    <mxGeometry x="93" width="47" height="26" as="geometry"/>
                </mxCell>
                <mxCell id="Qm3J36VMEmxJ5wWoOTs4-49" value="" style="shape=partialRectangle;html=1;whiteSpace=wrap;collapsible=0;dropTarget=0;pointerEvents=0;fillColor=none;top=0;left=0;bottom=0;right=0;points=[[0,0.5],[1,0.5]];portConstraint=eastwest;" parent="Qm3J36VMEmxJ5wWoOTs4-40" vertex="1">
                    <mxGeometry y="53" width="140" height="27" as="geometry"/>
                </mxCell>
                <mxCell id="Qm3J36VMEmxJ5wWoOTs4-50" value="" style="shape=partialRectangle;html=1;whiteSpace=wrap;connectable=0;fillColor=none;top=0;left=0;bottom=0;right=0;overflow=hidden;" parent="Qm3J36VMEmxJ5wWoOTs4-49" vertex="1">
                    <mxGeometry width="47" height="27" as="geometry"/>
                </mxCell>
                <mxCell id="Qm3J36VMEmxJ5wWoOTs4-51" value="" style="shape=partialRectangle;html=1;whiteSpace=wrap;connectable=0;fillColor=none;top=0;left=0;bottom=0;right=0;overflow=hidden;" parent="Qm3J36VMEmxJ5wWoOTs4-49" vertex="1">
                    <mxGeometry x="47" width="46" height="27" as="geometry"/>
                </mxCell>
                <mxCell id="Qm3J36VMEmxJ5wWoOTs4-52" value="" style="shape=partialRectangle;html=1;whiteSpace=wrap;connectable=0;fillColor=none;top=0;left=0;bottom=0;right=0;overflow=hidden;" parent="Qm3J36VMEmxJ5wWoOTs4-49" vertex="1">
                    <mxGeometry x="93" width="47" height="27" as="geometry"/>
                </mxCell>
                <mxCell id="Qm3J36VMEmxJ5wWoOTs4-67" value="" style="shape=table;html=1;whiteSpace=wrap;startSize=0;container=1;collapsible=0;childLayout=tableLayout;fillColor=#fff2cc;strokeColor=#d6b656;" parent="1" vertex="1">
                    <mxGeometry x="312" y="350" width="130" height="67" as="geometry"/>
                </mxCell>
                <mxCell id="Qm3J36VMEmxJ5wWoOTs4-68" value="" style="shape=partialRectangle;html=1;whiteSpace=wrap;collapsible=0;dropTarget=0;pointerEvents=0;fillColor=none;top=0;left=0;bottom=0;right=0;points=[[0,0.5],[1,0.5]];portConstraint=eastwest;" parent="Qm3J36VMEmxJ5wWoOTs4-67" vertex="1">
                    <mxGeometry width="130" height="20" as="geometry"/>
                </mxCell>
                <mxCell id="Qm3J36VMEmxJ5wWoOTs4-69" value="objID" style="shape=partialRectangle;html=1;whiteSpace=wrap;connectable=0;fillColor=none;top=0;left=0;bottom=0;right=0;overflow=hidden;" parent="Qm3J36VMEmxJ5wWoOTs4-68" vertex="1">
                    <mxGeometry width="43" height="20" as="geometry"/>
                </mxCell>
                <mxCell id="Qm3J36VMEmxJ5wWoOTs4-70" value="dateTime" style="shape=partialRectangle;html=1;whiteSpace=wrap;connectable=0;fillColor=none;top=0;left=0;bottom=0;right=0;overflow=hidden;" parent="Qm3J36VMEmxJ5wWoOTs4-68" vertex="1">
                    <mxGeometry x="43" width="44" height="20" as="geometry"/>
                </mxCell>
                <mxCell id="Qm3J36VMEmxJ5wWoOTs4-71" value="" style="shape=partialRectangle;html=1;whiteSpace=wrap;connectable=0;fillColor=none;top=0;left=0;bottom=0;right=0;overflow=hidden;" parent="Qm3J36VMEmxJ5wWoOTs4-68" vertex="1">
                    <mxGeometry x="87" width="43" height="20" as="geometry"/>
                </mxCell>
                <mxCell id="Qm3J36VMEmxJ5wWoOTs4-72" value="" style="shape=partialRectangle;html=1;whiteSpace=wrap;collapsible=0;dropTarget=0;pointerEvents=0;fillColor=none;top=0;left=0;bottom=0;right=0;points=[[0,0.5],[1,0.5]];portConstraint=eastwest;" parent="Qm3J36VMEmxJ5wWoOTs4-67" vertex="1">
                    <mxGeometry y="20" width="130" height="24" as="geometry"/>
                </mxCell>
                <mxCell id="Qm3J36VMEmxJ5wWoOTs4-73" value="999" style="shape=partialRectangle;html=1;whiteSpace=wrap;connectable=0;fillColor=none;top=0;left=0;bottom=0;right=0;overflow=hidden;" parent="Qm3J36VMEmxJ5wWoOTs4-72" vertex="1">
                    <mxGeometry width="43" height="24" as="geometry"/>
                </mxCell>
                <mxCell id="Qm3J36VMEmxJ5wWoOTs4-74" value="" style="shape=partialRectangle;html=1;whiteSpace=wrap;connectable=0;fillColor=none;top=0;left=0;bottom=0;right=0;overflow=hidden;" parent="Qm3J36VMEmxJ5wWoOTs4-72" vertex="1">
                    <mxGeometry x="43" width="44" height="24" as="geometry"/>
                </mxCell>
                <mxCell id="Qm3J36VMEmxJ5wWoOTs4-75" value="" style="shape=partialRectangle;html=1;whiteSpace=wrap;connectable=0;fillColor=none;top=0;left=0;bottom=0;right=0;overflow=hidden;" parent="Qm3J36VMEmxJ5wWoOTs4-72" vertex="1">
                    <mxGeometry x="87" width="43" height="24" as="geometry"/>
                </mxCell>
                <mxCell id="Qm3J36VMEmxJ5wWoOTs4-76" value="" style="shape=partialRectangle;html=1;whiteSpace=wrap;collapsible=0;dropTarget=0;pointerEvents=0;fillColor=none;top=0;left=0;bottom=0;right=0;points=[[0,0.5],[1,0.5]];portConstraint=eastwest;" parent="Qm3J36VMEmxJ5wWoOTs4-67" vertex="1">
                    <mxGeometry y="44" width="130" height="23" as="geometry"/>
                </mxCell>
                <mxCell id="Qm3J36VMEmxJ5wWoOTs4-77" value="" style="shape=partialRectangle;html=1;whiteSpace=wrap;connectable=0;fillColor=none;top=0;left=0;bottom=0;right=0;overflow=hidden;" parent="Qm3J36VMEmxJ5wWoOTs4-76" vertex="1">
                    <mxGeometry width="43" height="23" as="geometry"/>
                </mxCell>
                <mxCell id="Qm3J36VMEmxJ5wWoOTs4-78" value="" style="shape=partialRectangle;html=1;whiteSpace=wrap;connectable=0;fillColor=none;top=0;left=0;bottom=0;right=0;overflow=hidden;" parent="Qm3J36VMEmxJ5wWoOTs4-76" vertex="1">
                    <mxGeometry x="43" width="44" height="23" as="geometry"/>
                </mxCell>
                <mxCell id="Qm3J36VMEmxJ5wWoOTs4-79" value="" style="shape=partialRectangle;html=1;whiteSpace=wrap;connectable=0;fillColor=none;top=0;left=0;bottom=0;right=0;overflow=hidden;" parent="Qm3J36VMEmxJ5wWoOTs4-76" vertex="1">
                    <mxGeometry x="87" width="43" height="23" as="geometry"/>
                </mxCell>
                <UserObject label="upVotes Set {}" placeholders="1" name="Variable" id="Qm3J36VMEmxJ5wWoOTs4-81">
                    <mxCell style="text;html=1;strokeColor=none;fillColor=none;align=center;verticalAlign=middle;whiteSpace=wrap;overflow=hidden;" parent="1" vertex="1">
                        <mxGeometry x="540" y="330" width="80" height="20" as="geometry"/>
                    </mxCell>
                </UserObject>
                <UserObject label="hidden set {}" placeholders="1" name="Variable" id="Qm3J36VMEmxJ5wWoOTs4-82">
                    <mxCell style="text;html=1;strokeColor=none;fillColor=none;align=center;verticalAlign=middle;whiteSpace=wrap;overflow=hidden;" parent="1" vertex="1">
                        <mxGeometry x="345" y="417" width="80" height="20" as="geometry"/>
                    </mxCell>
                </UserObject>
                <UserObject label="Used For Chart/Graph" placeholders="1" name="Variable" id="Qm3J36VMEmxJ5wWoOTs4-93">
                    <mxCell style="text;html=1;strokeColor=none;fillColor=none;align=center;verticalAlign=middle;whiteSpace=wrap;overflow=hidden;fontStyle=5" parent="1" vertex="1">
                        <mxGeometry x="630" y="280" width="170" height="20" as="geometry"/>
                    </mxCell>
                </UserObject>
                <mxCell id="Qm3J36VMEmxJ5wWoOTs4-96" value="Grid" style="rounded=1;whiteSpace=wrap;html=1;fillColor=none;fontSize=15;" parent="1" vertex="1">
                    <mxGeometry x="70" width="50" height="30" as="geometry"/>
                </mxCell>
                <mxCell id="Qm3J36VMEmxJ5wWoOTs4-97" value="Chart" style="rounded=1;whiteSpace=wrap;html=1;fillColor=none;fontSize=15;" parent="1" vertex="1">
                    <mxGeometry x="132.5" width="50" height="30" as="geometry"/>
                </mxCell>
                <mxCell id="Qm3J36VMEmxJ5wWoOTs4-108" value="local storage API" style="text;html=1;strokeColor=none;fillColor=none;align=center;verticalAlign=middle;whiteSpace=wrap;rounded=0;fontSize=15;" parent="1" vertex="1">
                    <mxGeometry x="560" y="210" width="130" height="20" as="geometry"/>
                </mxCell>
                <mxCell id="Qm3J36VMEmxJ5wWoOTs4-112" value="fetch data" style="text;html=1;strokeColor=none;fillColor=none;align=center;verticalAlign=middle;whiteSpace=wrap;rounded=0;fontSize=15;" parent="1" vertex="1">
                    <mxGeometry x="470" y="130" width="80" height="20" as="geometry"/>
                </mxCell>
                <mxCell id="Qm3J36VMEmxJ5wWoOTs4-116" value="Hide Item ()" style="text;html=1;strokeColor=none;fillColor=none;align=center;verticalAlign=middle;whiteSpace=wrap;rounded=0;" parent="1" vertex="1">
                    <mxGeometry x="250" y="70" width="80" height="20" as="geometry"/>
                </mxCell>
                <mxCell id="Qm3J36VMEmxJ5wWoOTs4-124" style="edgeStyle=orthogonalEdgeStyle;rounded=0;orthogonalLoop=1;jettySize=auto;html=1;exitX=0;exitY=1;exitDx=0;exitDy=0;entryX=1;entryY=0.5;entryDx=0;entryDy=0;fontSize=15;" parent="1" source="Qm3J36VMEmxJ5wWoOTs4-115" target="Qm3J36VMEmxJ5wWoOTs4-33" edge="1">
                    <mxGeometry relative="1" as="geometry"/>
                </mxCell>
                <mxCell id="Qm3J36VMEmxJ5wWoOTs4-115" value="" style="ellipse;whiteSpace=wrap;html=1;aspect=fixed;fontSize=15;opacity=20;fillColor=#FFE599;dashed=1;" parent="1" vertex="1">
                    <mxGeometry x="360" y="20" width="150" height="150" as="geometry"/>
                </mxCell>
                <mxCell id="Qm3J36VMEmxJ5wWoOTs4-125" value="FetchNews ()" style="text;html=1;strokeColor=none;fillColor=none;align=center;verticalAlign=middle;whiteSpace=wrap;rounded=0;fontStyle=1" parent="1" vertex="1">
                    <mxGeometry x="250" y="50" width="80" height="20" as="geometry"/>
                </mxCell>
                <mxCell id="Qm3J36VMEmxJ5wWoOTs4-126" value="UpVote ()" style="text;html=1;strokeColor=none;fillColor=none;align=center;verticalAlign=middle;whiteSpace=wrap;rounded=0;" parent="1" vertex="1">
                    <mxGeometry x="246" y="93" width="80" height="20" as="geometry"/>
                </mxCell>
            </root>
        </mxGraphModel>
    </diagram>
</mxfile>